<?xml version="1.0" encoding="UTF-8" standalone="no"?><!DOCTYPE svg PUBLIC "-//W3C//DTD SVG 1.1//EN" "http://www.w3.org/Graphics/SVG/1.1/DTD/svg11.dtd"><svg width="100%" height="100%" viewBox="0 0 160 104" version="1.1" xmlns="http://www.w3.org/2000/svg" xmlns:xlink="http://www.w3.org/1999/xlink" xml:space="preserve" xmlns:serif="http://www.serif.com/" style="fill-rule:evenodd;clip-rule:evenodd;stroke-linecap:round;stroke-linejoin:round;stroke-miterlimit:1.5;"><path d="M59.358,16.912l44.352,0.294l0.171,10.498l-44.436,-0.21l-0.087,-10.582Z" style="fill:#023ba7;stroke:#000;stroke-width:2px;"/><path d="M38.585,78.689l-0.334,24.227l92.954,0.005l0,-24.27l-92.62,0.038Z" style="fill:#023ba7;stroke:#000;stroke-width:2px;"/><path d="M131.351,102.998l-0.293,-24.818l27.594,-17.622l0,20.175l-27.301,22.265Z" style="fill:#023ba7;stroke:#000;stroke-width:2px;"/><path d="M37.932,102.324l-0.061,-24.108l-36.871,-14.041l0,20.415l36.932,17.734Z" style="fill:#023ba7;stroke:#000;stroke-width:2px;"/><path d="M38.605,78.415l-37.555,-13.748l36.138,-20.493l64.221,-1.185l57.503,17.348l-27.323,17.529l-92.984,0.549Z" style="fill:#2e62c6;stroke:#000;stroke-width:2px;"/><path d="M94.007,68.252l0.097,-40.734l-7.462,0.219l0.226,42.999l7.139,-2.484Z" style="fill:#023ba7;stroke:#000;stroke-width:2px;"/><path d="M86.586,70.712l0.039,-42.897l-15.565,0.074l0.671,42.901l14.855,-0.078Z" style="fill:#023ba7;stroke:#000;stroke-width:2px;"/><path d="M71.137,70.792l-9.675,-2.816l0.168,-39.625l9.141,-0.116l0.366,42.557Z" style="fill:#023ba7;stroke:#000;stroke-width:2px;"/><path d="M104.138,27.639l15.833,-9.553l-0.121,-9.912l-16.212,9.14l0.5,10.325Z" style="fill:#023ba7;stroke:#000;stroke-width:2px;"/><path d="M59.213,27.428l-0.145,-10.675l-23.68,-6.813l0.802,9.862l23.023,7.626Z" style="fill:#023ba7;stroke:#000;stroke-width:2px;"/><path d="M59.706,17.203l-24.032,-7.168l22.857,-9.035l36.979,0l24.757,6.812l-15.559,8.753l-45.002,0.638Z" style="fill:#2e62c6;stroke:#000;stroke-width:2px;"/></svg>